<?xml version="1.0" encoding="UTF-8" standalone="no"?>
<!DOCTYPE svg PUBLIC "-//W3C//DTD SVG 1.1//EN" "http://www.w3.org/Graphics/SVG/1.1/DTD/svg11.dtd">
<svg width="100%" height="100%" viewBox="0 0 500 281" version="1.1" xmlns="http://www.w3.org/2000/svg" xmlns:xlink="http://www.w3.org/1999/xlink" xml:space="preserve" xmlns:serif="http://www.serif.com/" style="fill-rule:evenodd;clip-rule:evenodd;stroke-linejoin:round;stroke-miterlimit:2;">
    <g transform="matrix(1,0,0,1,-586.012,-6020.46)">
        <g id="_-Logo-Default-White" serif:id="Logo Default White" transform="matrix(0.400845,0,0,0.77649,-381.85,1434.67)">
            <rect x="2414.56" y="5905.79" width="1247.37" height="361.351" style="fill:none;"/>
            <clipPath id="_clip1">
                <rect x="2414.56" y="5905.79" width="1247.37" height="361.351"/>
            </clipPath>
            <g clip-path="url(#_clip1)">
                <g transform="matrix(4.48659,0,0,2.3161,-32261,-6438.79)">
                    <g transform="matrix(1.21275,0,0,1.21275,3720.97,5270.32)">
                        <path d="M3418.5,123.593L3418.82,123.588C3421.07,123.588 3423.04,124.083 3424.77,124.855C3428.69,126.78 3431.48,130.402 3432.34,134.666C3433.21,138.945 3432.03,143.382 3429.16,146.668C3429.16,146.67 3429.15,146.673 3429.15,146.675C3425.67,150.687 3421.24,155.582 3416.7,160.029C3415.3,159.006 3413.63,157.879 3411.78,156.845C3408.14,154.798 3403.86,153.158 3399.78,153.158C3392.05,153.158 3388.08,159.267 3388.08,165.468C3388.08,171.668 3392.05,177.777 3399.78,177.777C3402.45,177.777 3406.01,176.239 3409.87,173.509C3412.13,171.912 3414.54,169.91 3416.98,167.692C3417.23,167.927 3417.87,168.489 3418.79,169.235C3417.62,170.325 3416.32,171.47 3414.87,172.664C3413.64,173.677 3413.47,175.498 3414.48,176.727C3415.49,177.956 3417.32,178.131 3418.55,177.117C3420.46,175.541 3422.11,174.047 3423.58,172.655C3427.63,175.212 3433.04,177.777 3438.44,177.777C3446.63,177.777 3450.48,172.374 3450.48,167.25C3450.48,162.126 3446.63,156.724 3438.44,156.724C3433.39,156.724 3430.14,158.519 3426.56,161.727C3425.43,162.742 3424.25,163.917 3422.93,165.229C3422.12,164.575 3421.52,164.035 3421.17,163.713C3425.67,159.265 3430.05,154.448 3433.51,150.46C3437.56,145.828 3439.22,139.563 3438,133.523C3436.82,127.681 3433.07,122.694 3427.82,119.93C3430.23,117.275 3431.27,113.491 3431.08,109.668C3430.73,102.723 3426.09,96.041 3418.82,96.041C3411.56,96.041 3406.89,102.72 3406.52,109.66C3406.3,113.721 3407.56,117.746 3410.33,120.401C3405.32,123.651 3401.83,129.509 3400.5,135.25C3399.06,141.457 3400.33,147.305 3403.81,149.904C3410.54,154.923 3421.71,149.772 3421.71,135.755C3421.71,134.162 3420.41,132.869 3418.82,132.869C3417.23,132.869 3415.93,134.162 3415.93,135.755C3415.93,140.869 3413.96,144.403 3411.27,145.643C3409.94,146.256 3408.47,146.181 3407.26,145.277C3406.43,144.653 3406.02,143.571 3405.81,142.328C3405.51,140.616 3405.65,138.607 3406.12,136.555C3407.53,130.489 3411.86,123.8 3418.5,123.593ZM3427.74,168.578C3430.83,170.402 3434.63,172.005 3438.44,172.005C3442.47,172.005 3444.71,169.771 3444.71,167.25C3444.71,164.73 3442.47,162.496 3438.44,162.496C3435.01,162.496 3432.85,163.843 3430.41,166.026C3429.56,166.791 3428.68,167.645 3427.74,168.578ZM3412.4,164.053C3411.38,163.333 3410.21,162.581 3408.96,161.878C3406.16,160.307 3402.91,158.93 3399.78,158.93C3395.76,158.93 3393.85,162.245 3393.85,165.468C3393.85,168.691 3395.76,172.005 3399.78,172.005C3400.62,172.005 3401.59,171.659 3402.66,171.145C3404.78,170.132 3407.18,168.435 3409.71,166.363C3410.6,165.635 3411.5,164.861 3412.4,164.053ZM3418.82,117.816C3423.65,117.816 3425.51,113.822 3425.32,109.96C3425.12,106.013 3422.95,101.813 3418.82,101.813C3414.68,101.813 3412.49,106.016 3412.28,109.969C3412.07,113.831 3413.95,117.816 3418.82,117.816Z" style="fill:#4ad34a;"/>
                    </g>
                    <g transform="matrix(-0.527731,0,0,0.549922,10089.9,4844.21)">
                        <path d="M4113.55,1151.83C4090.08,1144.13 4066.18,1131.6 4046.43,1111.51C4022.56,1087.24 4007.35,1070.88 3995.66,1059.82C3979.59,1044.63 3970.88,1040.2 3953.5,1038.8C3950.34,1038.54 3947.8,1036.17 3947.46,1033.14C3947.12,1030.12 3949.06,1027.28 3952.09,1026.38C3952.09,1026.38 4034.2,1001.59 4105.16,1073.08C4117.54,1085.55 4128.96,1094.25 4139.37,1100.45C4142.48,1102.3 4143.44,1106.23 4141.51,1109.21C4139.58,1112.2 4135.49,1113.12 4132.38,1111.27C4121.18,1104.6 4108.87,1095.27 4095.56,1081.86C4056.12,1042.13 4013,1034.71 3985.29,1034.99C3988.87,1037.16 3992.51,1039.83 3996.46,1043.13C4009.41,1053.95 4025.92,1072.1 4056.07,1102.77C4074.24,1121.25 4096.26,1132.71 4117.84,1139.79C4121.31,1140.92 4123.16,1144.54 4121.98,1147.87C4120.79,1151.19 4117.02,1152.97 4113.55,1151.83Z" style="fill:#4ad34a;"/>
                    </g>
                    <g transform="matrix(0.527731,0,0,0.549922,5645.52,4844.21)">
                        <path d="M4117.84,1139.79C4096.26,1132.71 4074.24,1121.25 4056.07,1102.77C4025.92,1072.1 4009.41,1053.95 3996.46,1043.13C3992.51,1039.83 3988.87,1037.16 3985.29,1034.99C4013,1034.71 4056.12,1042.13 4095.56,1081.86C4108.87,1095.27 4121.18,1104.6 4132.38,1111.27C4135.49,1113.12 4139.58,1112.2 4141.51,1109.21C4143.44,1106.23 4142.48,1102.3 4139.37,1100.45C4128.96,1094.25 4117.54,1085.55 4105.16,1073.08C4034.2,1001.59 3952.09,1026.38 3952.09,1026.38C3949.06,1027.28 3947.12,1030.12 3947.46,1033.14C3947.8,1036.17 3950.34,1038.54 3953.5,1038.8C3970.88,1040.2 3979.59,1044.63 3995.66,1059.82C4007.35,1070.88 4022.56,1087.24 4046.43,1111.51C4066.18,1131.6 4090.08,1144.13 4113.55,1151.83C4117.02,1152.97 4120.79,1151.19 4121.98,1147.87C4123.16,1144.54 4121.31,1140.92 4117.84,1139.79Z" style="fill:#4ad34a;"/>
                    </g>
                    <g transform="matrix(0.566124,0,0,0.492135,5483.85,4894.53)">
                        <path d="M4210.96,884.666L4210.86,884.662L4210.83,884.663L4210.8,884.662L4210.7,884.666L4210.57,884.669L4210.52,884.672L4210.5,884.672L4210.44,884.678L4210.27,884.691L4210.22,884.698L4210.21,884.699L4210.18,884.703L4209.97,884.73L4209.91,884.741C4209.43,884.824 4208.95,884.975 4208.48,885.194L4208.24,885.313L4208.22,885.329L4208.21,885.333L4208.14,885.374L4207.97,885.469L4207.95,885.479L4207.94,885.487L4207.75,885.607L4207.7,885.642L4207.69,885.644C4207.25,885.944 4206.84,886.311 4206.46,886.744C4206.3,886.931 4206.15,887.126 4206.01,887.329C4204.82,889.015 4174.91,931.67 4155.5,983.464C4141.94,1019.65 4133.7,1060.23 4142.8,1094.81C4143.79,1098.56 4147.25,1100.69 4150.51,1099.55C4153.78,1098.41 4155.63,1094.44 4154.64,1090.68C4146.32,1059.11 4154.47,1022.14 4166.86,989.094C4181.26,950.644 4201.66,917.41 4210.83,903.384C4220,917.41 4240.4,950.644 4254.81,989.094C4267.19,1022.14 4275.34,1059.11 4267.03,1090.68C4266.04,1094.44 4267.89,1098.41 4271.15,1099.55C4274.42,1100.69 4277.87,1098.56 4278.86,1094.81C4287.96,1060.23 4279.72,1019.65 4266.16,983.464C4246.76,931.67 4216.85,889.015 4215.66,887.329C4215.52,887.126 4215.37,886.931 4215.2,886.744C4214.83,886.31 4214.41,885.943 4213.97,885.644L4213.97,885.642L4213.91,885.607L4213.72,885.487L4213.71,885.479L4213.69,885.469L4213.53,885.374L4213.45,885.333L4213.45,885.329L4213.42,885.313L4213.18,885.194C4212.72,884.974 4212.24,884.824 4211.75,884.741L4211.69,884.73L4211.48,884.703L4211.45,884.699L4211.45,884.698L4211.39,884.691L4211.22,884.678L4211.16,884.672L4211.14,884.672L4211.1,884.669L4210.96,884.666Z" style="fill:#4ad34a;"/>
                    </g>
                    <g transform="matrix(-0.483575,0,0,0.496554,9908.96,4893.96)">
                        <path d="M4094.64,1057.77C4082.84,1026.99 4075.04,987.197 4075.2,935.745C4075.22,932.506 4077.49,929.691 4080.72,928.921C4083.95,928.151 4087.31,929.625 4088.85,932.493C4088.85,932.493 4105.12,962.668 4132.65,996.042C4135.15,999.075 4134.65,1003.51 4131.54,1005.95C4128.43,1008.39 4123.86,1007.9 4121.36,1004.87C4108.5,989.269 4098.01,974.34 4090.38,962.655C4092.45,999.293 4099.03,1028.91 4108.21,1052.83C4109.6,1056.48 4107.7,1060.54 4103.96,1061.9C4100.22,1063.26 4096.04,1061.41 4094.64,1057.77Z" style="fill:#4ad34a;"/>
                    </g>
                    <g transform="matrix(0.483575,0,0,0.496554,5826.45,4893.96)">
                        <path d="M4108.21,1052.83C4099.03,1028.91 4092.45,999.292 4090.38,962.652C4098.01,974.34 4108.5,989.269 4121.36,1004.87C4123.86,1007.9 4128.43,1008.39 4131.54,1005.95C4134.65,1003.51 4135.15,999.075 4132.65,996.042C4105.12,962.668 4088.85,932.493 4088.85,932.493C4087.31,929.625 4083.95,928.151 4080.72,928.921C4077.49,929.691 4075.22,932.506 4075.2,935.745C4075.04,987.197 4082.84,1026.99 4094.64,1057.77C4096.04,1061.41 4100.22,1063.26 4103.96,1061.9C4107.7,1060.54 4109.6,1056.48 4108.21,1052.83Z" style="fill:#4ad34a;"/>
                    </g>
                </g>
            </g>
        </g>
    </g>
</svg>
